<mxfile host="app.diagrams.net" modified="2021-11-29T16:48:41.172Z" agent="5.0 (Macintosh; Intel Mac OS X 10_15_7) AppleWebKit/537.36 (KHTML, like Gecko) Chrome/95.0.4638.69 Safari/537.36" etag="bkA51O2zid-qKjsihpr-" version="15.8.6" type="github">
  <diagram id="TS-0sg0qIK4w21vJPw6Y" name="Page-1">
    <mxGraphModel dx="1051" dy="803" grid="1" gridSize="10" guides="1" tooltips="1" connect="1" arrows="1" fold="1" page="1" pageScale="1" pageWidth="850" pageHeight="1100" math="0" shadow="0">
      <root>
        <mxCell id="0" />
        <mxCell id="1" parent="0" />
        <mxCell id="ibKIXqcFg7Qy6oh_62os-23" value="" style="edgeStyle=orthogonalEdgeStyle;rounded=0;orthogonalLoop=1;jettySize=auto;html=1;fontSize=20;" parent="1" source="ibKIXqcFg7Qy6oh_62os-1" edge="1">
          <mxGeometry relative="1" as="geometry">
            <mxPoint x="160" y="360" as="targetPoint" />
          </mxGeometry>
        </mxCell>
        <mxCell id="ibKIXqcFg7Qy6oh_62os-1" value="" style="shape=cylinder3;whiteSpace=wrap;html=1;boundedLbl=1;backgroundOutline=1;size=15;fillColor=#d5e8d4;strokeColor=#82b366;" parent="1" vertex="1">
          <mxGeometry x="80" y="169" width="160" height="120" as="geometry" />
        </mxCell>
        <mxCell id="ibKIXqcFg7Qy6oh_62os-16" value="" style="edgeStyle=orthogonalEdgeStyle;rounded=0;orthogonalLoop=1;jettySize=auto;html=1;fontSize=20;" parent="1" source="ibKIXqcFg7Qy6oh_62os-2" edge="1">
          <mxGeometry relative="1" as="geometry">
            <mxPoint x="160" y="160" as="targetPoint" />
            <Array as="points">
              <mxPoint x="95" y="130" />
              <mxPoint x="160" y="130" />
            </Array>
          </mxGeometry>
        </mxCell>
        <mxCell id="ibKIXqcFg7Qy6oh_62os-2" value="" style="shape=umlActor;verticalLabelPosition=bottom;verticalAlign=top;html=1;outlineConnect=0;fillColor=#dae8fc;strokeColor=#6c8ebf;" parent="1" vertex="1">
          <mxGeometry x="80" y="40" width="30" height="60" as="geometry" />
        </mxCell>
        <mxCell id="ibKIXqcFg7Qy6oh_62os-17" value="" style="edgeStyle=orthogonalEdgeStyle;rounded=0;orthogonalLoop=1;jettySize=auto;html=1;fontSize=20;" parent="1" source="ibKIXqcFg7Qy6oh_62os-3" edge="1">
          <mxGeometry relative="1" as="geometry">
            <mxPoint x="160" y="160" as="targetPoint" />
          </mxGeometry>
        </mxCell>
        <mxCell id="ibKIXqcFg7Qy6oh_62os-3" value="" style="shape=umlActor;verticalLabelPosition=bottom;verticalAlign=top;html=1;outlineConnect=0;fillColor=#fff2cc;strokeColor=#d6b656;" parent="1" vertex="1">
          <mxGeometry x="145" y="40" width="30" height="60" as="geometry" />
        </mxCell>
        <mxCell id="ibKIXqcFg7Qy6oh_62os-18" value="" style="edgeStyle=orthogonalEdgeStyle;rounded=0;orthogonalLoop=1;jettySize=auto;html=1;fontSize=20;" parent="1" source="ibKIXqcFg7Qy6oh_62os-4" edge="1">
          <mxGeometry relative="1" as="geometry">
            <mxPoint x="160" y="160" as="targetPoint" />
            <Array as="points">
              <mxPoint x="225" y="130" />
              <mxPoint x="160" y="130" />
            </Array>
          </mxGeometry>
        </mxCell>
        <mxCell id="ibKIXqcFg7Qy6oh_62os-4" value="" style="shape=umlActor;verticalLabelPosition=bottom;verticalAlign=top;html=1;outlineConnect=0;fillColor=#f8cecc;strokeColor=#b85450;" parent="1" vertex="1">
          <mxGeometry x="210" y="40" width="30" height="60" as="geometry" />
        </mxCell>
        <mxCell id="ibKIXqcFg7Qy6oh_62os-14" value="&lt;font size=&quot;1&quot;&gt;&lt;b style=&quot;font-size: 20px&quot;&gt;Data providers&lt;/b&gt;&lt;/font&gt;" style="text;html=1;strokeColor=none;fillColor=none;align=center;verticalAlign=middle;whiteSpace=wrap;rounded=0;" parent="1" vertex="1">
          <mxGeometry x="80" width="160" height="30" as="geometry" />
        </mxCell>
        <mxCell id="ibKIXqcFg7Qy6oh_62os-29" value="" style="edgeStyle=orthogonalEdgeStyle;rounded=0;orthogonalLoop=1;jettySize=auto;html=1;fontSize=20;" parent="1" source="ibKIXqcFg7Qy6oh_62os-15" edge="1">
          <mxGeometry relative="1" as="geometry">
            <mxPoint x="360" y="234" as="targetPoint" />
          </mxGeometry>
        </mxCell>
        <mxCell id="ibKIXqcFg7Qy6oh_62os-15" value="&lt;font size=&quot;1&quot;&gt;&lt;b style=&quot;font-size: 20px&quot;&gt;DMS&lt;/b&gt;&lt;/font&gt;" style="text;html=1;strokeColor=none;fillColor=none;align=center;verticalAlign=middle;whiteSpace=wrap;rounded=0;" parent="1" vertex="1">
          <mxGeometry x="80" y="219" width="160" height="30" as="geometry" />
        </mxCell>
        <mxCell id="ibKIXqcFg7Qy6oh_62os-19" value="" style="shape=document;whiteSpace=wrap;html=1;boundedLbl=1;fontSize=20;fillColor=#dae8fc;strokeColor=#6c8ebf;" parent="1" vertex="1">
          <mxGeometry x="80" y="370" width="120" height="80" as="geometry" />
        </mxCell>
        <mxCell id="ibKIXqcFg7Qy6oh_62os-21" value="" style="shape=document;whiteSpace=wrap;html=1;boundedLbl=1;fontSize=20;fillColor=#fff2cc;strokeColor=#d6b656;" parent="1" vertex="1">
          <mxGeometry x="100" y="390" width="120" height="80" as="geometry" />
        </mxCell>
        <mxCell id="ibKIXqcFg7Qy6oh_62os-35" value="" style="edgeStyle=orthogonalEdgeStyle;rounded=0;orthogonalLoop=1;jettySize=auto;html=1;fontSize=20;exitX=1;exitY=0.25;exitDx=0;exitDy=0;" parent="1" source="ibKIXqcFg7Qy6oh_62os-22" edge="1">
          <mxGeometry relative="1" as="geometry">
            <mxPoint x="246" y="430" as="sourcePoint" />
            <mxPoint x="286" y="430" as="targetPoint" />
            <Array as="points" />
          </mxGeometry>
        </mxCell>
        <mxCell id="ibKIXqcFg7Qy6oh_62os-45" value="" style="edgeStyle=orthogonalEdgeStyle;rounded=0;orthogonalLoop=1;jettySize=auto;html=1;fontSize=14;" parent="1" source="ibKIXqcFg7Qy6oh_62os-22" edge="1">
          <mxGeometry relative="1" as="geometry">
            <mxPoint x="550" y="520" as="targetPoint" />
            <Array as="points">
              <mxPoint x="273" y="450" />
              <mxPoint x="273" y="520" />
              <mxPoint x="360" y="520" />
            </Array>
          </mxGeometry>
        </mxCell>
        <mxCell id="ibKIXqcFg7Qy6oh_62os-22" value="" style="shape=document;whiteSpace=wrap;html=1;boundedLbl=1;fontSize=20;fillColor=#f8cecc;strokeColor=#b85450;" parent="1" vertex="1">
          <mxGeometry x="120" y="410" width="120" height="80" as="geometry" />
        </mxCell>
        <mxCell id="ibKIXqcFg7Qy6oh_62os-24" value="&lt;span style=&quot;font-size: 20px&quot;&gt;&lt;b&gt;Monitoring Datasets&lt;/b&gt;&lt;/span&gt;" style="text;html=1;strokeColor=none;fillColor=none;align=center;verticalAlign=middle;whiteSpace=wrap;rounded=0;" parent="1" vertex="1">
          <mxGeometry x="80" y="510" width="160" height="30" as="geometry" />
        </mxCell>
        <mxCell id="ibKIXqcFg7Qy6oh_62os-43" value="" style="edgeStyle=orthogonalEdgeStyle;rounded=0;orthogonalLoop=1;jettySize=auto;html=1;fontSize=20;" parent="1" source="ibKIXqcFg7Qy6oh_62os-26" edge="1">
          <mxGeometry relative="1" as="geometry">
            <mxPoint x="590" y="360" as="targetPoint" />
            <Array as="points">
              <mxPoint x="480" y="320" />
              <mxPoint x="590" y="320" />
            </Array>
          </mxGeometry>
        </mxCell>
        <mxCell id="ibKIXqcFg7Qy6oh_62os-26" value="" style="shape=cube;whiteSpace=wrap;html=1;boundedLbl=1;backgroundOutline=1;darkOpacity=0.05;darkOpacity2=0.1;fontSize=20;fillColor=#e1d5e7;strokeColor=#9673a6;" parent="1" vertex="1">
          <mxGeometry x="370" y="170" width="180" height="119" as="geometry" />
        </mxCell>
        <mxCell id="ibKIXqcFg7Qy6oh_62os-27" value="&lt;font size=&quot;1&quot;&gt;&lt;b style=&quot;font-size: 20px&quot;&gt;Cosana&lt;/b&gt;&lt;/font&gt;" style="text;html=1;strokeColor=none;fillColor=none;align=center;verticalAlign=middle;whiteSpace=wrap;rounded=0;" parent="1" vertex="1">
          <mxGeometry x="390" y="219" width="160" height="30" as="geometry" />
        </mxCell>
        <mxCell id="ibKIXqcFg7Qy6oh_62os-30" value="" style="shape=hexagon;perimeter=hexagonPerimeter2;whiteSpace=wrap;html=1;fixedSize=1;fontSize=20;fillColor=#f5f5f5;fontColor=#333333;strokeColor=#666666;" parent="1" vertex="1">
          <mxGeometry x="300" y="370" width="120" height="120" as="geometry" />
        </mxCell>
        <mxCell id="ibKIXqcFg7Qy6oh_62os-41" value="" style="edgeStyle=orthogonalEdgeStyle;rounded=0;orthogonalLoop=1;jettySize=auto;html=1;fontSize=20;" parent="1" edge="1">
          <mxGeometry relative="1" as="geometry">
            <mxPoint x="420" y="430" as="sourcePoint" />
            <mxPoint x="550" y="430" as="targetPoint" />
          </mxGeometry>
        </mxCell>
        <mxCell id="ibKIXqcFg7Qy6oh_62os-31" value="&lt;font size=&quot;1&quot;&gt;&lt;b style=&quot;font-size: 20px&quot;&gt;SMC analysis&lt;/b&gt;&lt;/font&gt;" style="text;html=1;strokeColor=none;fillColor=none;align=center;verticalAlign=middle;whiteSpace=wrap;rounded=0;" parent="1" vertex="1">
          <mxGeometry x="305" y="415" width="110" height="30" as="geometry" />
        </mxCell>
        <mxCell id="ibKIXqcFg7Qy6oh_62os-37" value="" style="shape=internalStorage;whiteSpace=wrap;html=1;backgroundOutline=1;fontSize=20;fillColor=#ffe6cc;strokeColor=#d79b00;" parent="1" vertex="1">
          <mxGeometry x="560" y="370" width="130" height="170" as="geometry" />
        </mxCell>
        <mxCell id="ibKIXqcFg7Qy6oh_62os-38" value="&lt;font size=&quot;1&quot;&gt;&lt;b style=&quot;font-size: 20px&quot;&gt;Annual report&lt;/b&gt;&lt;/font&gt;" style="text;html=1;strokeColor=none;fillColor=none;align=center;verticalAlign=middle;whiteSpace=wrap;rounded=0;" parent="1" vertex="1">
          <mxGeometry x="567" y="408" width="110" height="30" as="geometry" />
        </mxCell>
        <mxCell id="ibKIXqcFg7Qy6oh_62os-44" value="&lt;font style=&quot;font-size: 14px&quot;&gt;&lt;i&gt;&lt;span style=&quot;background-color: rgb(185 , 224 , 165)&quot;&gt;2.2 Groundwater extractions&lt;br&gt;2.3 Surface water supply&lt;br&gt;2.4 Total water use&lt;br&gt;2.5 Change in groundwater storage&lt;/span&gt;&lt;br&gt;&lt;/i&gt;&lt;/font&gt;" style="text;html=1;strokeColor=none;fillColor=none;align=left;verticalAlign=middle;whiteSpace=wrap;rounded=0;" parent="1" vertex="1">
          <mxGeometry x="600" y="300" width="250" height="30" as="geometry" />
        </mxCell>
        <mxCell id="ibKIXqcFg7Qy6oh_62os-46" value="&lt;i&gt;&lt;span style=&quot;background-color: rgb(169 , 196 , 235)&quot;&gt;2.1 Groundwater elevations&lt;br&gt;2.6. Land subsidence&lt;br&gt;2.7 Groundwater quality&lt;/span&gt;&lt;br&gt;&lt;/i&gt;&lt;i&gt;&lt;span style=&quot;background-color: rgb(185 , 224 , 165)&quot;&gt;3.1 Groundwater level monitoring network&lt;br&gt;3.2 Groundwater quality monitoring network&lt;/span&gt;&lt;/i&gt;&lt;i&gt;&lt;br&gt;&lt;/i&gt;" style="text;html=1;strokeColor=none;fillColor=none;align=left;verticalAlign=middle;whiteSpace=wrap;rounded=0;fontSize=14;" parent="1" vertex="1">
          <mxGeometry x="260" y="560" width="280" height="30" as="geometry" />
        </mxCell>
        <mxCell id="ibKIXqcFg7Qy6oh_62os-47" value="&lt;i&gt;&lt;br&gt;&lt;/i&gt;" style="text;html=1;strokeColor=none;fillColor=none;align=left;verticalAlign=middle;whiteSpace=wrap;rounded=0;fontSize=14;" parent="1" vertex="1">
          <mxGeometry x="20" y="560" width="240" height="30" as="geometry" />
        </mxCell>
        <mxCell id="ibKIXqcFg7Qy6oh_62os-48" value="&lt;i&gt;&lt;span style=&quot;background-color: rgb(169 , 196 , 235)&quot;&gt;4.1 Shallow wells&lt;br&gt;4.2 ISW&lt;br&gt;4.3 GDEs&lt;/span&gt;&lt;br&gt;&lt;/i&gt;" style="text;html=1;strokeColor=none;fillColor=none;align=left;verticalAlign=middle;whiteSpace=wrap;rounded=0;fontSize=14;" parent="1" vertex="1">
          <mxGeometry x="435" y="380" width="115" height="30" as="geometry" />
        </mxCell>
        <mxCell id="ibKIXqcFg7Qy6oh_62os-50" value="&lt;i&gt;&lt;span style=&quot;background-color: rgb(169 , 196 , 235)&quot;&gt;1 Introduction&lt;/span&gt;&lt;br&gt;&lt;span style=&quot;background-color: rgb(169 , 196 , 235)&quot;&gt;5.1 Implementation activities&lt;/span&gt;&lt;br&gt;&lt;span style=&quot;background-color: rgb(169 , 196 , 235)&quot;&gt;5.2 Interim milestones&lt;/span&gt;&lt;br&gt;&lt;span style=&quot;background-color: rgb(241 , 156 , 153)&quot;&gt;5.3 PMAs&lt;br&gt;&lt;/span&gt;&lt;span style=&quot;background-color: rgb(169 , 196 , 235)&quot;&gt;5.4 Support activities&lt;/span&gt;&lt;br&gt;&lt;span style=&quot;background-color: rgb(241 , 156 , 153)&quot;&gt;5.5 Coming year activities&lt;/span&gt;&lt;br&gt;&lt;/i&gt;" style="text;html=1;strokeColor=none;fillColor=none;align=left;verticalAlign=middle;whiteSpace=wrap;rounded=0;fontSize=14;" parent="1" vertex="1">
          <mxGeometry x="560" y="560" width="185" height="100" as="geometry" />
        </mxCell>
        <mxCell id="ibKIXqcFg7Qy6oh_62os-51" value="&lt;span style=&quot;color: rgb(0 , 0 , 0) ; font-family: &amp;#34;helvetica&amp;#34; ; font-size: 18px ; letter-spacing: normal ; text-align: left ; text-indent: 0px ; text-transform: none ; word-spacing: 0px&quot;&gt;&lt;span style=&quot;background-color: rgb(255 , 255 , 255)&quot;&gt;&lt;b&gt;Responsible party&amp;nbsp; &amp;nbsp; &amp;nbsp; &amp;nbsp; &amp;nbsp;&lt;/b&gt;&lt;/span&gt;&lt;i style=&quot;font-weight: 400 ; background-color: rgb(169 , 196 , 235)&quot;&gt;LWA&lt;/i&gt;&lt;i style=&quot;font-weight: 400 ; background-color: rgb(255 , 255 , 255)&quot;&gt;&amp;nbsp; &amp;nbsp; &amp;nbsp; &amp;nbsp; &amp;nbsp; &amp;nbsp;&amp;nbsp;&lt;/i&gt;&lt;span style=&quot;font-weight: 400 ; font-style: italic ; background-color: rgb(185 , 224 , 165)&quot;&gt;W&amp;amp;C&lt;/span&gt;&lt;span style=&quot;font-weight: 400 ; font-style: italic ; background-color: rgb(255 , 255 , 255)&quot;&gt;&amp;nbsp; &amp;nbsp; &amp;nbsp; &amp;nbsp; &amp;nbsp; &amp;nbsp;&lt;/span&gt;&lt;span style=&quot;font-weight: 400 ; font-style: italic ; background-color: rgb(241 , 156 , 153)&quot;&gt;LWA + W&amp;amp;C&lt;/span&gt;&lt;br&gt;&lt;/span&gt;" style="text;whiteSpace=wrap;html=1;fontSize=14;fontColor=#00CC00;" parent="1" vertex="1">
          <mxGeometry x="305" y="70" width="510" height="100" as="geometry" />
        </mxCell>
        <mxCell id="ibKIXqcFg7Qy6oh_62os-53" value="&lt;font size=&quot;1&quot;&gt;&lt;span style=&quot;font-size: 30px&quot;&gt;SASb Annual Report Workflow&lt;/span&gt;&lt;/font&gt;" style="text;html=1;strokeColor=none;fillColor=none;align=center;verticalAlign=middle;whiteSpace=wrap;rounded=0;fontStyle=3" parent="1" vertex="1">
          <mxGeometry x="290" y="20" width="512.5" height="30" as="geometry" />
        </mxCell>
        <mxCell id="BRkCkSnl1eJoRGljSLWB-1" value="" style="edgeStyle=orthogonalEdgeStyle;rounded=0;orthogonalLoop=1;jettySize=auto;html=1;fontSize=20;" edge="1" parent="1">
          <mxGeometry relative="1" as="geometry">
            <mxPoint x="360" y="360" as="targetPoint" />
            <Array as="points">
              <mxPoint x="460" y="289" />
              <mxPoint x="460" y="320" />
              <mxPoint x="360" y="320" />
            </Array>
            <mxPoint x="460" y="289" as="sourcePoint" />
          </mxGeometry>
        </mxCell>
        <mxCell id="BRkCkSnl1eJoRGljSLWB-2" value="&lt;i&gt;&lt;span style=&quot;background-color: rgb(255 , 255 , 255)&quot;&gt;&lt;font color=&quot;#666666&quot;&gt;ISW streamflow&lt;/font&gt;&lt;/span&gt;&lt;br&gt;&lt;/i&gt;" style="text;html=1;strokeColor=none;fillColor=none;align=left;verticalAlign=middle;whiteSpace=wrap;rounded=0;fontSize=14;" vertex="1" parent="1">
          <mxGeometry x="328" y="295" width="115" height="30" as="geometry" />
        </mxCell>
      </root>
    </mxGraphModel>
  </diagram>
</mxfile>
